<?xml version="1.0" standalone="no"?>
<!DOCTYPE svg PUBLIC "-//W3C//DTD SVG 20010904//EN"
 "http://www.w3.org/TR/2001/REC-SVG-20010904/DTD/svg10.dtd">
<svg version="1.0" xmlns="http://www.w3.org/2000/svg"
 width="977.000000pt" height="977.000000pt" viewBox="0 0 977.000000 977.000000"
 preserveAspectRatio="xMidYMid meet">
<metadata>
Created by potrace 1.11, written by Peter Selinger 2001-2013
</metadata>
<g transform="translate(0.000000,977.000000) scale(0.100000,-0.100000)"
fill="#000000" stroke="none">
<path d="M4398 7405 c-2 -2 -59 -6 -128 -9 -242 -12 -436 -27 -645 -51 -22 -3
-62 -7 -90 -10 -27 -3 -61 -8 -75 -11 -14 -2 -43 -7 -65 -10 -22 -2 -53 -6
-70 -9 -16 -2 -50 -7 -75 -10 -25 -3 -81 -12 -125 -20 -44 -8 -91 -17 -105
-19 -14 -3 -25 -5 -25 -6 0 -1 -9 -3 -20 -4 -19 -2 -57 -9 -115 -21 -14 -3
-38 -8 -55 -11 -16 -3 -46 -9 -65 -14 -19 -5 -75 -19 -125 -30 -49 -12 -130
-33 -180 -47 -49 -14 -94 -26 -100 -27 -27 -6 -253 -78 -275 -88 -14 -6 -29
-12 -35 -14 -21 -5 -197 -74 -250 -99 -31 -14 -59 -25 -63 -25 -4 0 -20 -7
-37 -16 -16 -9 -70 -37 -120 -62 -49 -25 -92 -48 -95 -51 -3 -4 -30 -19 -60
-35 -30 -16 -57 -33 -60 -36 -3 -4 -19 -14 -37 -23 -17 -9 -37 -22 -45 -29 -7
-8 -36 -30 -65 -50 -28 -20 -62 -45 -74 -55 -46 -37 -216 -209 -244 -248 -17
-22 -32 -42 -36 -45 -3 -3 -21 -32 -41 -65 -86 -145 -126 -250 -154 -405 -11
-63 -13 -293 -2 -306 5 -7 8 -16 7 -20 -5 -27 4 -34 39 -34 48 0 27 -15 -43
-30 -27 -6 -61 -13 -75 -16 -14 -3 -36 -7 -50 -10 -22 -4 -390 -95 -445 -110
-37 -10 -50 -12 -62 -13 -10 -1 -11 -32 -8 -128 7 -158 13 -260 19 -293 3 -14
7 -45 10 -70 10 -78 33 -184 46 -215 5 -11 16 -43 25 -71 28 -91 28 -91 130
-50 103 40 121 45 119 31 -36 -235 -7 -412 89 -559 23 -36 101 -105 139 -123
l38 -18 -5 -50 c-4 -27 -9 -63 -11 -80 -3 -16 -7 -46 -10 -65 -4 -35 -6 -50
-19 -170 -16 -135 -12 -420 6 -520 29 -162 83 -271 161 -327 75 -52 84 -54
348 -68 69 -4 154 -9 190 -11 145 -9 627 -30 890 -39 80 -3 239 -7 353 -10
115 -3 213 -7 218 -10 5 -4 9 -2 9 4 0 6 11 6 29 1 30 -8 1782 -6 2126 3 363
10 555 16 720 22 88 3 219 8 290 10 191 6 531 20 725 30 52 3 147 7 210 10 63
3 158 7 210 10 362 20 545 28 622 29 43 1 78 3 78 6 0 3 24 6 53 6 60 2 314
15 562 29 55 4 136 8 180 10 207 10 257 25 326 97 116 122 148 357 104 763
-13 123 -17 154 -22 180 -2 17 -6 48 -8 70 -7 70 -14 126 -19 153 -5 24 -12
82 -20 165 -1 15 3 27 10 27 29 0 104 43 138 80 30 33 76 112 77 135 0 2 5 19
10 37 37 125 28 332 -24 523 -16 56 -77 217 -86 225 -3 3 -19 31 -36 63 -16
32 -38 67 -47 77 -23 25 -15 29 40 18 26 -5 61 -10 77 -13 17 -2 44 -6 60 -9
17 -2 50 -8 75 -11 25 -4 52 -9 61 -10 9 -2 40 -6 70 -10 30 -4 65 -9 79 -11
59 -9 278 -13 304 -6 43 12 55 36 31 63 -27 29 -116 88 -195 130 -36 19 -67
36 -70 39 -6 7 -65 33 -65 29 0 -1 -21 9 -46 23 -26 14 -79 40 -119 58 -40 17
-104 46 -144 64 -39 18 -78 36 -86 39 -16 6 -7 8 65 11 75 4 160 17 169 26 11
11 -28 27 -94 40 -25 5 -56 12 -70 15 -14 3 -43 7 -65 10 -22 3 -53 7 -70 10
-70 11 -91 15 -134 20 -116 15 -110 12 -100 47 29 103 32 258 6 364 -25 103
-89 231 -155 314 -41 51 -188 200 -198 200 -3 0 -27 17 -53 39 -50 42 -205
141 -220 141 -5 0 -11 4 -13 9 -4 11 -239 125 -358 174 -139 57 -479 171 -545
183 -11 2 -38 8 -60 14 -22 6 -56 15 -75 19 -19 5 -42 11 -50 14 -8 3 -32 9
-54 12 -21 3 -42 8 -47 11 -5 3 -24 8 -42 11 -18 2 -41 6 -52 8 -11 1 -38 7
-60 13 -22 6 -56 13 -75 16 -19 3 -46 8 -60 11 -14 3 -38 7 -55 10 -16 3 -41
7 -55 10 -14 2 -43 7 -65 10 -23 3 -50 7 -60 9 -26 5 -113 17 -145 21 -14 1
-43 5 -65 9 -22 4 -60 9 -85 11 -25 2 -61 6 -80 9 -68 9 -240 26 -325 31 -195
13 -247 17 -295 21 -62 6 -987 14 -992 9z"/>
</g>
</svg>
